{"glyphs":{":":{"x_min":0,"x_max":269,"ha":269,"o":"m 100 463 q 100 503 123 528 q 146 552 187 552 q 214 552 231 536 q 247 521 247 491 q 247 453 223 428 q 200 403 162 403 q 130 403 115 420 q 100 438 100 463 z m 16 46 q 16 86 39 111 q 62 135 103 135 q 130 135 147 119 q 163 104 163 74 q 163 36 140 11 q 117 -14 79 -14 q 47 -14 31 3 q 16 21 16 46 z"},"$":{"x_min":0,"x_max":551,"ha":551,"o":"m 482 241 q 482 157 424 106 q 365 55 259 45 l 237 -58 l 171 -58 l 193 45 q 97 51 30 84 l 30 186 q 68 166 117 152 q 167 138 212 137 l 253 326 q 177 354 144 394 q 111 434 111 491 q 111 573 169 622 q 227 671 327 679 l 345 759 l 411 759 l 394 678 q 473 670 535 638 l 493 548 q 428 580 374 584 l 335 403 q 397 378 426 356 q 455 335 468 307 q 482 279 482 241 z m 279 139 q 321 145 345 168 q 370 192 370 230 q 370 279 314 301 z m 307 584 q 264 579 242 556 q 220 533 220 496 q 220 448 274 428 z"},"?":{"x_min":0,"x_max":443,"ha":443,"o":"m 127 217 q 136 282 162 324 q 188 367 248 411 q 300 449 320 468 q 339 488 348 508 q 357 527 357 551 q 357 585 336 606 q 315 628 276 628 q 238 628 203 615 q 167 601 129 583 l 91 669 q 192 724 291 724 q 375 724 422 682 q 470 641 470 564 q 470 505 439 458 q 408 410 326 352 q 275 316 253 287 q 230 258 223 217 z m 79 46 q 79 86 102 111 q 125 135 166 135 q 193 135 210 119 q 226 104 226 74 q 226 36 202 11 q 178 -13 141 -13 q 109 -13 94 4 q 79 21 79 46 z"},"<":{"x_min":0,"x_max":551,"ha":551,"o":"m 513 108 l 56 318 l 56 377 l 513 615 l 513 520 l 173 352 l 513 204 z"},"'":{"x_min":0,"x_max":236,"ha":236,"o":"m 252 714 l 178 456 l 104 456 l 139 714 z"},"=":{"x_min":0,"x_max":551,"ha":551,"o":"m 57 406 l 57 493 l 514 493 l 514 406 z m 57 210 l 57 298 l 514 298 l 514 210 z"},"a":{"x_min":0,"x_max":579,"ha":579,"o":"m 195 -10 q 126 -10 86 40 q 46 89 46 179 q 46 278 80 364 q 114 450 173 500 q 233 550 304 550 q 352 550 386 528 q 420 505 439 463 l 444 463 l 474 540 l 562 540 l 447 0 l 358 0 l 368 86 l 365 86 q 288 -10 195 -10 z m 237 83 q 277 83 315 121 q 354 159 379 222 q 404 286 404 361 q 404 404 381 430 q 358 456 321 456 q 279 456 243 418 q 206 381 184 316 q 162 251 162 182 q 162 132 182 108 q 202 83 237 83 z"},"L":{"x_min":0,"x_max":496,"ha":496,"o":"m 34 0 l 185 714 l 301 714 l 171 100 l 434 100 l 413 0 z"},"3":{"x_min":0,"x_max":551,"ha":551,"o":"m 531 563 q 531 486 482 434 q 434 382 351 367 l 351 364 q 413 352 447 312 q 481 272 481 212 q 481 147 448 96 q 415 46 352 18 q 289 -10 203 -10 q 93 -10 15 29 l 15 134 q 56 110 106 97 q 155 84 201 84 q 278 84 321 119 q 364 154 364 215 q 364 322 228 322 l 163 322 l 181 411 l 233 411 q 313 411 364 448 q 414 484 414 545 q 414 583 390 606 q 366 628 322 628 q 287 628 250 615 q 214 603 171 574 l 120 653 q 179 692 230 708 q 282 724 341 724 q 430 724 480 681 q 531 638 531 563 z"},";":{"x_min":0,"x_max":269,"ha":269,"o":"m 163 116 l 167 105 q 106 -22 37 -129 l -49 -129 q -2 -24 48 116 z m 100 463 q 100 503 123 528 q 146 552 187 552 q 214 552 231 536 q 247 521 247 491 q 247 453 223 428 q 200 403 162 403 q 130 403 115 420 q 100 438 100 463 z"},"J":{"x_min":0,"x_max":299,"ha":299,"o":"m -74 -199 q -125 -199 -157 -187 l -155 -89 q -114 -99 -80 -99 q 18 -99 44 23 l 190 714 l 306 714 l 157 8 q 135 -98 78 -149 q 22 -199 -74 -199 z"},"V":{"x_min":0,"x_max":569,"ha":569,"o":"m 247 121 q 281 208 314 272 l 536 714 l 660 714 l 287 0 l 161 0 l 91 714 l 204 714 l 240 272 q 245 222 246 158 l 245 121 z"},"\"":{"x_min":0,"x_max":419,"ha":419,"o":"m 252 714 l 178 456 l 104 456 l 139 714 z m 436 714 l 362 456 l 287 456 l 323 714 z"},"7":{"x_min":0,"x_max":551,"ha":551,"o":"m 61 0 l 429 614 l 100 614 l 121 714 l 576 714 l 560 632 l 190 0 z"},"S":{"x_min":0,"x_max":516,"ha":516,"o":"m 454 209 q 454 106 384 48 q 313 -10 189 -10 q 86 -10 19 27 l 19 136 q 104 89 190 89 q 257 89 295 117 q 334 146 334 197 q 334 230 314 257 q 294 283 230 323 q 179 356 154 383 q 130 410 117 442 q 104 474 104 512 q 104 575 134 623 q 164 671 219 698 q 274 724 343 724 q 443 724 529 679 l 487 586 q 408 624 343 624 q 290 624 257 595 q 225 567 225 521 q 225 498 232 481 q 240 463 255 448 q 271 434 321 402 q 396 354 425 310 q 454 266 454 209 z"},"}":{"x_min":0,"x_max":352,"ha":352,"o":"m 132 714 q 287 714 287 599 q 287 569 279 534 l 257 435 q 250 403 250 387 q 250 318 352 318 l 333 227 q 274 227 239 207 q 205 186 194 137 l 163 -12 q 146 -93 103 -125 q 59 -158 -29 -158 l -43 -158 l -43 -69 q 9 -68 31 -51 q 54 -34 63 5 l 97 156 q 109 209 140 239 q 170 269 227 277 l 227 280 q 150 303 150 385 q 150 412 158 444 l 179 540 q 184 562 184 576 q 184 604 163 614 q 142 624 104 624 l 121 714 z"},"Z":{"x_min":0,"x_max":533,"ha":533,"o":"m 440 0 l -19 0 l -3 82 l 412 613 l 120 613 l 141 714 l 579 714 l 562 630 l 146 100 l 461 100 z"},"x":{"x_min":0,"x_max":504,"ha":504,"o":"m 239 189 l 90 0 l -42 0 l 190 278 l 77 540 l 197 540 l 267 358 l 407 540 l 541 540 l 316 272 l 437 0 l 317 0 z"},")":{"x_min":0,"x_max":312,"ha":312,"o":"m 273 420 q 273 253 213 113 q 153 -28 27 -158 l -75 -158 q 168 109 168 423 q 168 583 112 714 l 201 714 q 273 584 273 420 z"},"&":{"x_min":0,"x_max":689,"ha":689,"o":"m 365 634 q 323 634 300 607 q 277 581 277 538 q 277 485 307 440 q 379 477 405 505 q 430 534 430 567 q 430 599 413 616 q 395 634 365 634 z m 248 86 q 286 86 320 99 q 354 112 390 139 l 261 325 q 196 289 173 256 q 149 223 149 181 q 149 139 176 113 q 204 86 248 86 z m 32 171 q 32 243 74 295 q 116 347 214 395 q 171 469 171 533 q 171 621 226 673 q 281 725 371 725 q 449 725 494 686 q 539 646 539 579 q 539 516 495 467 q 452 417 352 373 l 467 214 q 520 269 555 358 l 669 358 q 614 226 524 136 l 624 0 l 489 0 l 443 64 q 391 25 340 8 q 289 -10 228 -10 q 135 -10 84 38 q 32 85 32 171 z"},"_":{"x_min":0,"x_max":397,"ha":397,"o":"m 307 -158 l -92 -158 l -77 -90 l 322 -90 z"},"v":{"x_min":0,"x_max":487,"ha":487,"o":"m 113 0 l 49 540 l 162 540 l 189 248 q 196 170 196 103 l 199 103 q 213 139 233 184 q 254 228 265 248 l 417 540 l 539 540 l 247 0 z"},"O":{"x_min":0,"x_max":725,"ha":725,"o":"m 694 450 q 694 314 647 208 q 601 101 520 46 q 438 -10 331 -10 q 205 -10 135 63 q 66 136 66 265 q 66 396 114 503 q 162 611 246 668 q 329 725 435 725 q 558 725 626 652 q 694 580 694 450 z m 426 625 q 358 625 304 578 q 249 531 218 448 q 187 365 187 266 q 187 182 227 136 q 267 90 338 90 q 405 90 459 136 q 513 183 543 266 q 573 349 573 449 q 573 532 535 579 q 496 625 426 625 z"},"(":{"x_min":0,"x_max":312,"ha":312,"o":"m 38 135 q 38 302 99 444 q 160 585 284 714 l 386 714 q 143 446 143 133 q 143 -28 199 -158 l 110 -158 q 38 -31 38 135 z"},"C":{"x_min":0,"x_max":598,"ha":598,"o":"m 451 624 q 376 624 317 581 q 258 537 222 454 q 187 371 187 271 q 187 183 227 136 q 268 90 346 90 q 415 90 507 123 l 507 23 q 419 -10 324 -10 q 203 -10 135 63 q 66 135 66 266 q 66 393 117 502 q 169 611 255 667 q 341 724 451 724 q 557 724 641 679 l 595 584 q 564 601 530 612 q 495 624 451 624 z"},"W":{"x_min":0,"x_max":873,"ha":873,"o":"m 643 0 l 517 0 l 499 411 l 496 501 l 498 553 l 495 553 q 472 483 438 411 l 250 0 l 125 0 l 99 714 l 211 714 l 220 299 q 220 232 214 130 l 217 130 q 257 238 286 303 l 475 714 l 585 714 l 600 304 l 602 222 l 600 130 l 604 130 q 618 173 638 226 q 659 280 668 301 l 843 714 l 963 714 z"},"A":{"x_min":0,"x_max":591,"ha":591,"o":"m 404 198 l 167 198 l 65 0 l -59 0 l 323 715 l 457 715 l 538 0 l 424 0 z m 396 300 q 376 503 374 546 q 371 588 371 614 q 344 546 302 464 l 218 300 z"},"f":{"x_min":0,"x_max":343,"ha":343,"o":"m -37 -240 q -81 -240 -110 -229 l -110 -136 q -79 -146 -54 -146 q 11 -146 32 -46 l 138 453 l 51 453 l 61 505 l 156 542 l 166 587 q 188 684 232 724 q 276 765 357 765 q 413 765 460 744 l 430 658 q 394 672 364 672 q 330 672 310 651 q 290 630 279 582 l 270 540 l 382 540 l 364 453 l 252 453 l 143 -61 q 124 -153 79 -197 q 35 -240 -37 -240 z"},"Q":{"x_min":0,"x_max":725,"ha":725,"o":"m 694 450 q 694 293 630 175 q 567 58 457 13 l 586 -170 l 445 -170 l 346 -10 l 331 -10 q 205 -10 135 63 q 66 136 66 265 q 66 396 114 503 q 162 611 246 668 q 329 725 435 725 q 558 725 626 652 q 694 580 694 450 z m 426 625 q 358 625 304 578 q 249 531 218 448 q 187 365 187 266 q 187 182 227 136 q 267 90 338 90 q 405 90 459 136 q 513 182 543 264 q 573 347 573 449 q 573 532 535 579 q 496 625 426 625 z"},"w":{"x_min":0,"x_max":752,"ha":752,"o":"m 412 0 l 403 306 l 402 340 l 404 438 q 392 408 379 377 q 366 346 210 0 l 82 0 l 59 540 l 167 540 l 173 225 q 172 182 168 105 l 171 105 q 203 191 224 238 l 360 540 l 484 540 l 493 245 l 494 219 l 492 105 l 495 105 q 503 129 523 182 q 542 235 554 262 q 565 289 677 540 l 796 540 l 543 0 z"},"-":{"x_min":0,"x_max":317,"ha":317,"o":"m 23 218 l 45 317 l 290 317 l 268 218 z"},"E":{"x_min":0,"x_max":526,"ha":526,"o":"m 413 0 l 34 0 l 185 714 l 564 714 l 543 614 l 280 614 l 239 421 l 484 421 l 464 322 l 218 322 l 171 99 l 434 99 z"},"s":{"x_min":0,"x_max":450,"ha":450,"o":"m 382 166 q 382 82 324 36 q 267 -10 164 -10 q 71 -10 7 23 l 7 122 q 82 78 159 78 q 207 78 236 98 q 265 117 265 151 q 265 176 248 194 q 231 211 179 241 q 118 274 93 308 q 68 342 68 388 q 68 464 120 507 q 172 550 261 550 q 357 550 430 509 l 393 423 q 325 460 263 460 q 228 460 205 444 q 183 428 183 399 q 183 377 199 360 q 215 343 265 316 q 316 287 338 267 q 359 246 371 222 q 382 198 382 166 z"},">":{"x_min":0,"x_max":551,"ha":551,"o":"m 56 204 l 395 352 l 56 520 l 56 615 l 513 377 l 513 318 l 56 108 z"},"l":{"x_min":0,"x_max":275,"ha":275,"o":"m 137 0 l 23 0 l 184 760 l 299 760 z"},"8":{"x_min":0,"x_max":551,"ha":551,"o":"m 357 725 q 444 725 495 682 q 546 638 546 565 q 546 500 507 453 q 469 405 386 373 q 445 335 470 292 q 496 250 496 194 q 496 135 466 88 q 436 42 380 16 q 325 -10 248 -10 q 149 -10 93 39 q 37 88 37 170 q 37 315 217 381 q 172 415 153 452 q 134 488 134 531 q 134 618 196 672 q 258 725 357 725 z m 290 328 q 217 302 185 266 q 152 231 152 180 q 152 135 181 107 q 209 80 258 80 q 314 80 348 111 q 382 143 382 193 q 382 237 358 270 q 334 302 290 328 z m 347 635 q 302 635 274 607 q 246 580 246 535 q 246 495 265 468 q 284 442 316 423 q 372 444 403 474 q 433 504 433 551 q 433 590 410 613 q 386 635 347 635 z"},"\\":{"x_min":0,"x_max":385,"ha":385,"o":"m 209 714 l 316 0 l 214 0 l 108 714 z"},"e":{"x_min":0,"x_max":525,"ha":525,"o":"m 324 462 q 277 462 236 420 q 195 378 177 309 l 191 309 q 283 309 334 335 q 386 361 386 409 q 386 434 371 448 q 355 462 324 462 z m 250 -10 q 154 -10 100 44 q 46 99 46 196 q 46 292 84 376 q 122 459 186 504 q 251 550 331 550 q 410 550 453 514 q 497 479 497 414 q 497 325 416 275 q 334 225 184 225 l 163 225 l 162 210 l 162 196 q 162 142 190 111 q 217 80 272 80 q 307 80 342 89 q 376 99 424 121 l 424 30 q 377 8 338 -1 q 298 -10 250 -10 z"},"b":{"x_min":0,"x_max":586,"ha":586,"o":"m 282 -10 q 234 -10 200 12 q 166 34 146 76 l 141 76 l 110 0 l 23 0 l 184 760 l 299 760 l 264 597 q 258 566 246 521 q 233 475 226 452 l 230 452 q 274 507 311 529 q 347 550 389 550 q 460 550 500 499 q 539 449 539 360 q 539 261 505 175 q 471 88 412 39 q 353 -10 282 -10 z m 347 456 q 308 456 268 417 q 229 378 204 314 q 180 250 180 182 q 180 135 203 109 q 226 83 267 83 q 309 83 345 121 q 381 160 402 224 q 423 288 423 358 q 423 456 347 456 z"},"%":{"x_min":0,"x_max":824,"ha":824,"o":"m 259 642 q 232 642 210 612 q 189 583 176 528 q 163 473 163 423 q 163 357 202 357 q 228 357 249 385 q 270 414 284 471 q 299 528 299 578 q 299 642 259 642 z m 393 579 q 393 501 366 426 q 339 351 294 313 q 250 276 194 276 q 133 276 101 314 q 69 353 69 426 q 69 507 95 579 q 121 651 164 688 q 208 724 266 724 q 328 724 361 687 q 393 650 393 579 z m 738 714 l 208 0 l 113 0 l 643 714 z m 649 357 q 624 357 602 329 q 581 301 567 245 q 553 190 553 137 q 553 72 593 72 q 618 72 640 100 q 661 129 676 186 q 690 242 690 293 q 690 357 649 357 z m 784 295 q 784 216 757 141 q 730 65 686 28 q 641 -10 586 -10 q 524 -10 491 28 q 459 65 459 136 q 459 220 485 292 q 511 365 554 402 q 598 438 656 438 q 718 438 751 401 q 784 365 784 295 z"},"m":{"x_min":0,"x_max":888,"ha":888,"o":"m 394 550 q 501 550 518 435 l 522 435 q 559 492 605 521 q 652 550 702 550 q 767 550 801 512 q 835 475 835 407 q 835 376 824 319 l 756 0 l 641 0 l 711 328 q 720 375 720 393 q 720 456 661 456 q 608 456 563 396 q 517 335 496 235 l 447 0 l 332 0 l 402 328 q 410 368 410 390 q 410 456 353 456 q 299 456 254 394 q 208 332 186 229 l 138 0 l 23 0 l 138 540 l 228 540 l 218 440 l 222 440 q 294 550 394 550 z"},"#":{"x_min":0,"x_max":646,"ha":646,"o":"m 506 426 l 465 286 l 597 286 l 590 204 l 442 204 l 383 0 l 295 0 l 355 204 l 234 204 l 175 0 l 90 0 l 147 204 l 25 204 l 33 286 l 170 286 l 211 426 l 82 426 l 90 508 l 234 508 l 293 714 l 380 714 l 321 508 l 444 508 l 503 714 l 588 714 l 529 508 l 652 508 l 645 426 z m 257 286 l 379 286 l 419 426 l 297 426 z"},",":{"x_min":0,"x_max":259,"ha":259,"o":"m 163 116 l 167 105 q 106 -22 37 -129 l -50 -129 q 1 -13 48 116 z"},"n":{"x_min":0,"x_max":590,"ha":590,"o":"m 343 0 l 412 328 q 421 372 421 392 q 421 456 358 456 q 323 456 289 428 q 254 400 227 348 q 200 295 186 229 l 138 0 l 23 0 l 138 540 l 228 540 l 218 440 l 222 440 q 263 498 306 524 q 349 550 399 550 q 464 550 500 513 q 536 476 536 407 q 536 374 525 319 l 458 0 z"},"h":{"x_min":0,"x_max":590,"ha":590,"o":"m 343 0 l 412 328 q 421 372 421 390 q 421 456 358 456 q 303 456 256 395 q 208 334 186 228 l 138 0 l 23 0 l 184 760 l 299 760 l 271 632 q 258 570 235 489 l 226 452 l 230 452 q 271 504 312 527 q 354 550 399 550 q 465 550 501 512 q 536 474 536 404 q 536 367 525 319 l 457 0 z"},"z":{"x_min":0,"x_max":449,"ha":449,"o":"m 351 0 l -19 0 l -5 72 l 305 453 l 91 453 l 110 540 l 454 540 l 436 457 l 132 87 l 369 87 z"},"B":{"x_min":0,"x_max":609,"ha":609,"o":"m 380 714 q 488 714 544 673 q 599 632 599 552 q 599 480 557 433 q 515 386 440 371 l 440 367 q 493 354 522 317 q 551 280 551 227 q 551 121 478 61 q 404 0 274 0 l 34 0 l 185 714 z m 239 419 l 336 419 q 404 419 441 448 q 478 478 478 532 q 478 616 369 616 l 281 616 z m 170 98 l 279 98 q 351 98 391 131 q 432 165 432 226 q 432 274 403 299 q 374 324 317 324 l 219 324 z"},"K":{"x_min":0,"x_max":585,"ha":585,"o":"m 531 0 l 403 0 l 280 320 l 207 271 l 150 0 l 34 0 l 185 714 l 301 714 l 227 369 l 296 450 l 536 714 l 675 714 l 374 387 z"},"R":{"x_min":0,"x_max":589,"ha":589,"o":"m 210 285 l 150 0 l 34 0 l 185 714 l 350 714 q 459 714 517 668 q 575 622 575 526 q 575 445 533 390 q 491 334 407 309 l 529 0 l 402 0 l 301 285 z m 231 382 l 291 382 q 374 382 415 418 q 456 455 456 519 q 456 570 427 593 q 398 615 338 615 l 280 615 z"},"T":{"x_min":0,"x_max":514,"ha":514,"o":"m 258 0 l 142 0 l 271 614 l 86 614 l 108 714 l 595 714 l 574 614 l 388 614 z"},"P":{"x_min":0,"x_max":573,"ha":573,"o":"m 227 365 l 273 365 q 360 365 407 404 q 455 443 455 514 q 455 567 427 592 q 398 616 339 616 l 281 616 z m 573 518 q 573 397 490 332 q 408 267 260 267 l 206 267 l 150 0 l 34 0 l 185 714 l 348 714 q 460 714 517 665 q 573 616 573 518 z"},"|":{"x_min":0,"x_max":551,"ha":551,"o":"m 243 758 l 330 758 l 330 -235 l 243 -235 z"},"t":{"x_min":0,"x_max":367,"ha":367,"o":"m 222 83 q 255 83 296 98 l 296 11 q 279 3 250 -3 q 220 -10 191 -10 q 57 -10 57 111 q 57 139 65 175 l 124 453 l 45 453 l 55 507 l 148 547 l 211 660 l 282 660 l 257 540 l 393 540 l 374 453 l 239 453 l 179 174 q 173 147 173 129 q 173 108 185 95 q 197 83 222 83 z"},"M":{"x_min":0,"x_max":858,"ha":858,"o":"m 316 0 l 260 593 l 257 593 q 252 535 230 427 l 140 0 l 33 0 l 184 714 l 342 714 l 395 153 l 398 153 l 694 714 l 862 714 l 713 0 l 602 0 l 691 426 q 710 517 733 593 l 730 593 l 416 0 z"},"g":{"x_min":0,"x_max":521,"ha":521,"o":"m 558 540 l 543 473 l 449 457 q 463 429 463 390 q 463 296 405 240 q 347 185 249 185 q 224 185 204 189 q 150 169 150 138 q 150 120 165 113 q 181 106 210 102 l 272 94 q 358 83 395 52 q 432 20 432 -40 q 432 -136 358 -188 q 285 -240 149 -240 q 50 -240 -5 -204 q -59 -167 -59 -103 q -59 -53 -25 -16 q 9 21 84 46 q 47 68 47 108 q 47 142 70 166 q 92 191 141 214 q 75 253 75 337 q 75 433 135 491 q 195 550 293 550 q 332 550 371 540 z m 158 9 q 104 0 74 -26 q 45 -52 45 -90 q 45 -122 72 -140 q 99 -159 155 -159 q 234 -159 279 -133 q 324 -106 324 -57 q 324 -32 302 -18 q 280 -4 225 2 z m 290 473 q 258 473 234 454 q 210 436 197 403 q 184 371 184 332 q 184 297 201 279 q 219 260 251 260 q 283 260 306 279 q 329 298 342 331 q 355 364 355 404 q 355 473 290 473 z"},"j":{"x_min":0,"x_max":275,"ha":275,"o":"m -55 -240 q -99 -240 -128 -229 l -128 -136 q -97 -146 -71 -146 q -7 -146 12 -55 l 139 540 l 253 540 l 123 -69 q 104 -157 61 -199 q 17 -240 -55 -240 z m 162 673 q 162 706 181 727 q 199 747 234 747 q 260 747 276 734 q 292 721 292 695 q 292 660 272 640 q 253 620 221 620 q 195 620 179 633 q 162 645 162 673 z"},"i":{"x_min":0,"x_max":275,"ha":275,"o":"m 161 673 q 161 706 180 727 q 199 747 234 747 q 260 747 276 734 q 292 721 292 695 q 292 660 272 640 q 253 620 221 620 q 195 620 178 633 q 161 646 161 673 z m 138 0 l 23 0 l 138 540 l 253 540 z"},"y":{"x_min":0,"x_max":490,"ha":490,"o":"m 49 540 l 162 540 l 193 281 q 197 250 201 196 q 204 141 204 107 l 207 107 q 249 212 273 260 l 416 540 l 540 540 l 204 -85 q 160 -166 108 -203 q 57 -240 -13 -240 q -50 -240 -83 -231 l -83 -139 q -46 -147 -22 -147 q 14 -147 43 -126 q 73 -104 104 -50 l 129 -5 z"},"@":{"x_min":0,"x_max":851,"ha":851,"o":"m 833 413 q 833 327 804 256 q 775 184 723 144 q 670 103 606 103 q 558 103 532 125 q 507 148 501 184 l 498 184 q 449 103 363 103 q 303 103 270 141 q 238 180 238 248 q 238 322 271 385 q 304 447 363 484 q 421 520 491 520 q 517 520 537 518 q 558 515 576 511 q 594 507 639 492 l 590 301 q 575 245 575 223 q 575 178 614 178 q 649 178 679 211 q 709 243 727 296 q 744 349 744 408 q 744 520 681 578 q 619 636 504 636 q 399 636 316 588 q 232 539 186 450 q 139 361 139 252 q 139 125 208 56 q 276 -13 399 -13 q 497 -13 609 29 l 609 -47 q 502 -91 387 -91 q 285 -91 208 -50 q 131 -9 90 67 q 49 143 49 245 q 49 377 109 484 q 168 591 276 652 q 384 713 517 713 q 615 713 686 677 q 757 640 795 572 q 833 503 833 413 z m 483 446 q 441 446 406 420 q 370 394 350 349 q 330 305 330 255 q 330 178 385 178 q 425 178 454 213 q 483 249 503 321 l 534 438 q 508 446 483 446 z"},".":{"x_min":0,"x_max":269,"ha":269,"o":"m 16 46 q 16 86 39 111 q 62 135 103 135 q 130 135 147 119 q 163 104 163 74 q 163 36 140 11 q 117 -14 79 -14 q 47 -14 31 3 q 16 21 16 46 z"},"p":{"x_min":0,"x_max":586,"ha":586,"o":"m 282 -10 q 194 -10 151 76 l 146 76 q 143 29 134 -14 l 87 -240 l -27 -240 l 138 540 l 228 540 l 218 448 l 222 448 q 299 550 390 550 q 460 550 500 500 q 539 449 539 360 q 539 260 505 174 q 471 87 412 39 q 353 -10 282 -10 z m 347 456 q 308 456 269 417 q 229 378 205 314 q 180 250 180 182 q 180 135 203 109 q 226 83 267 83 q 309 83 345 121 q 381 160 402 224 q 423 288 423 358 q 423 456 347 456 z"},"X":{"x_min":0,"x_max":562,"ha":562,"o":"m 508 0 l 383 0 l 289 289 l 75 0 l -54 0 l 232 376 l 110 714 l 230 714 l 317 450 l 513 714 l 643 714 l 374 367 z"},"*":{"x_min":0,"x_max":548,"ha":548,"o":"m 424 744 l 367 565 l 564 576 l 558 476 l 379 498 l 462 322 l 362 292 l 312 473 l 201 321 l 122 391 l 265 521 l 94 570 l 129 665 l 302 578 l 320 765 z"},"Y":{"x_min":0,"x_max":533,"ha":533,"o":"m 284 387 l 495 714 l 625 714 l 321 268 l 265 0 l 149 0 l 207 270 l 91 714 l 209 714 z"},"c":{"x_min":0,"x_max":466,"ha":466,"o":"m 247 -10 q 151 -10 99 42 q 46 94 46 190 q 46 291 82 374 q 118 457 183 503 q 248 550 330 550 q 410 550 475 520 l 441 430 q 381 456 333 456 q 260 456 211 381 q 162 306 162 196 q 162 142 189 112 q 217 83 265 83 q 301 83 333 94 q 364 104 396 120 l 396 25 q 328 -10 247 -10 z"},"!":{"x_min":0,"x_max":272,"ha":272,"o":"m 164 217 l 78 217 l 160 714 l 293 714 z m 16 47 q 16 86 38 110 q 61 135 102 135 q 130 135 146 119 q 163 103 163 73 q 163 35 140 11 q 117 -13 80 -13 q 50 -13 33 3 q 16 20 16 47 z"},"/":{"x_min":0,"x_max":385,"ha":385,"o":"m 465 714 l 69 0 l -45 0 l 351 714 z"},"[":{"x_min":0,"x_max":308,"ha":308,"o":"m 197 -158 l -13 -158 l 173 714 l 383 714 l 364 628 l 256 628 l 108 -72 l 216 -72 z"},"6":{"x_min":0,"x_max":551,"ha":551,"o":"m 54 218 q 54 318 84 416 q 113 514 164 583 q 215 653 287 688 q 358 724 454 724 q 511 724 553 712 l 532 617 q 497 628 444 628 q 344 628 279 565 q 215 501 183 373 l 186 373 q 247 456 345 456 q 421 456 464 408 q 507 359 507 275 q 507 196 473 128 q 440 60 383 25 q 326 -10 251 -10 q 156 -10 105 49 q 54 107 54 218 z m 259 85 q 298 85 329 109 q 359 132 375 174 q 392 216 392 266 q 392 364 305 364 q 280 364 259 354 q 237 345 220 331 q 203 317 191 300 q 180 282 172 260 q 165 237 166 204 q 166 150 190 118 q 214 85 259 85 z"},"r":{"x_min":0,"x_max":408,"ha":408,"o":"m 389 550 q 419 550 442 544 l 417 437 q 391 444 367 444 q 306 444 257 389 q 209 333 190 244 l 138 0 l 23 0 l 138 540 l 228 540 l 218 440 l 222 440 q 263 499 303 524 q 344 550 389 550 z"},"2":{"x_min":0,"x_max":551,"ha":551,"o":"m 445 0 l -9 0 l 9 88 l 239 294 q 325 372 355 407 q 386 442 399 472 q 413 502 413 536 q 413 578 389 602 q 365 626 321 626 q 287 626 253 611 q 219 597 170 558 l 114 636 q 172 684 227 704 q 281 724 338 724 q 426 724 479 679 q 531 633 531 556 q 531 503 512 458 q 493 413 452 365 q 411 317 313 234 l 161 105 l 161 101 l 465 101 z"},"{":{"x_min":0,"x_max":352,"ha":352,"o":"m 223 -158 q 69 -158 69 -43 q 69 -13 77 22 l 99 120 q 106 152 106 168 q 106 237 4 237 l 23 328 q 82 328 116 349 q 151 370 162 419 l 191 553 q 205 619 227 652 q 249 685 285 699 q 322 714 382 714 l 411 714 l 391 624 q 344 624 323 607 q 302 591 293 551 l 259 400 q 247 347 216 317 q 186 286 129 278 l 129 275 q 207 253 207 170 q 207 151 199 111 l 178 16 q 173 -7 173 -20 q 173 -45 189 -56 q 205 -68 242 -68 l 242 -158 z"},"9":{"x_min":0,"x_max":551,"ha":551,"o":"m 527 497 q 527 397 499 295 q 470 192 424 124 q 378 56 314 23 q 250 -10 162 -10 q 97 -10 45 6 l 45 107 q 104 86 160 86 q 252 86 310 146 q 367 206 396 336 l 393 336 q 338 258 244 258 q 164 258 119 308 q 75 357 75 448 q 75 524 108 589 q 141 654 199 689 q 257 724 333 724 q 427 724 477 666 q 527 607 527 497 z m 324 629 q 284 629 253 606 q 222 583 206 542 q 189 502 189 455 q 189 404 211 377 q 234 350 277 350 q 334 350 374 396 q 413 442 413 513 q 413 566 390 597 q 366 629 324 629 z"}," ":{"x_min":0,"x_max":260,"ha":260,"o":""},"I":{"x_min":0,"x_max":297,"ha":297,"o":"m 34 0 l 186 714 l 301 714 l 149 0 z"},"H":{"x_min":0,"x_max":689,"ha":689,"o":"m 542 0 l 426 0 l 494 322 l 218 322 l 150 0 l 34 0 l 185 714 l 301 714 l 239 422 l 515 422 l 577 714 l 693 714 z"},"4":{"x_min":0,"x_max":551,"ha":551,"o":"m 511 155 l 413 155 l 380 0 l 268 0 l 302 155 l -2 155 l 16 251 l 408 716 l 532 716 l 434 251 l 532 251 z m 322 251 l 355 402 q 370 468 404 586 l 400 586 q 375 544 334 495 l 128 251 z"},"~":{"x_min":0,"x_max":551,"ha":551,"o":"m 168 338 q 143 338 113 323 q 83 308 54 279 l 54 372 q 103 425 176 425 q 207 425 234 419 q 260 413 305 394 q 339 379 361 373 q 383 367 407 367 q 432 367 462 382 q 493 397 521 426 l 521 333 q 471 279 399 279 q 368 279 338 287 q 309 295 271 311 q 234 327 213 332 q 191 338 168 338 z"},"D":{"x_min":0,"x_max":671,"ha":671,"o":"m 640 436 q 640 304 591 205 q 542 106 449 53 q 356 0 230 0 l 34 0 l 185 714 l 365 714 q 498 714 569 643 q 640 572 640 436 z m 236 98 q 322 98 387 140 q 451 182 486 258 q 520 334 520 432 q 520 522 477 569 q 434 616 352 616 l 281 616 l 170 98 z"},"^":{"x_min":0,"x_max":522,"ha":522,"o":"m 18 262 l 315 718 l 377 718 l 510 262 l 420 262 l 328 599 l 116 262 z"},"0":{"x_min":0,"x_max":551,"ha":551,"o":"m 537 494 q 537 345 499 227 q 460 110 392 50 q 323 -10 233 -10 q 138 -10 92 52 q 45 115 45 230 q 45 369 85 487 q 126 605 194 665 q 262 725 351 725 q 442 725 490 667 q 537 609 537 494 z m 342 629 q 294 629 254 574 q 213 520 187 422 q 161 324 161 229 q 161 159 180 123 q 199 86 243 86 q 292 86 332 141 q 373 197 397 296 q 421 395 421 498 q 421 629 342 629 z"},"F":{"x_min":0,"x_max":501,"ha":501,"o":"m 150 0 l 34 0 l 185 714 l 563 714 l 542 614 l 280 614 l 233 392 l 478 392 l 456 293 l 212 293 z"},"`":{"x_min":0,"x_max":554,"ha":554,"o":"m 448 606 l 378 606 q 346 637 313 680 q 281 723 264 756 l 264 766 l 384 766 q 407 691 448 618 z"},"k":{"x_min":0,"x_max":528,"ha":528,"o":"m 433 540 l 566 540 l 330 303 l 472 0 l 344 0 l 242 230 l 176 183 l 138 0 l 23 0 l 184 760 l 299 760 q 233 454 221 404 q 209 354 192 293 l 194 293 z"},"u":{"x_min":0,"x_max":590,"ha":590,"o":"m 247 540 l 184 242 q 169 173 169 148 q 169 83 231 83 q 266 83 301 111 q 335 139 362 190 q 389 242 404 311 l 452 540 l 566 540 l 452 0 l 362 0 l 372 100 l 368 100 q 328 43 285 17 q 241 -10 191 -10 q 125 -10 90 27 q 54 64 54 134 q 54 165 60 195 q 66 225 72 255 l 132 540 z"},"]":{"x_min":0,"x_max":308,"ha":308,"o":"m -52 -72 l 55 -72 l 204 628 l 96 628 l 115 714 l 325 714 l 139 -158 l -70 -158 z"},"U":{"x_min":0,"x_max":683,"ha":683,"o":"m 693 714 l 594 247 q 567 117 493 53 q 418 -10 296 -10 q 190 -10 132 42 q 74 94 74 191 q 74 231 84 274 l 178 714 l 294 714 l 200 272 q 190 229 190 195 q 190 145 219 117 q 248 90 307 90 q 378 90 419 129 q 461 168 480 257 l 577 714 z"},"o":{"x_min":0,"x_max":573,"ha":573,"o":"m 411 343 q 411 395 387 425 q 363 454 319 454 q 273 454 238 419 q 202 384 182 324 q 162 265 162 197 q 162 143 186 114 q 210 85 258 85 q 302 85 337 118 q 372 151 392 211 q 411 271 411 343 z m 527 338 q 527 239 491 158 q 456 78 393 34 q 331 -9 250 -9 q 156 -9 101 47 q 46 103 46 199 q 46 296 81 377 q 116 458 179 504 q 242 549 324 549 q 419 549 473 492 q 527 436 527 338 z"},"N":{"x_min":0,"x_max":728,"ha":728,"o":"m 582 0 l 455 0 l 255 568 l 252 568 l 247 534 q 235 461 230 430 q 224 399 140 0 l 33 0 l 184 714 l 315 714 l 510 153 l 513 153 q 516 179 528 247 q 541 314 548 346 l 626 714 l 733 714 z"},"+":{"x_min":0,"x_max":551,"ha":551,"o":"m 242 308 l 57 308 l 57 396 l 242 396 l 242 582 l 330 582 l 330 396 l 514 396 l 514 308 l 330 308 l 330 125 l 242 125 z"},"G":{"x_min":0,"x_max":683,"ha":683,"o":"m 384 387 l 634 387 l 557 28 q 502 8 450 -1 q 398 -10 334 -10 q 207 -10 136 62 q 66 133 66 263 q 66 392 116 499 q 166 606 258 665 q 349 724 466 724 q 520 724 570 714 q 620 704 670 680 l 626 581 q 541 623 463 623 q 386 623 323 579 q 260 535 223 453 q 187 371 187 271 q 187 182 230 136 q 274 90 354 90 q 407 90 459 106 l 498 287 l 363 287 z"},"q":{"x_min":0,"x_max":585,"ha":585,"o":"m 305 550 q 395 550 439 463 l 444 463 l 475 540 l 562 540 l 396 -240 l 282 -240 l 319 -70 q 325 -42 340 18 q 355 79 359 87 l 355 87 q 314 34 275 12 q 236 -10 192 -10 q 124 -10 85 40 q 46 90 46 179 q 46 281 82 368 q 117 456 176 503 q 234 550 305 550 z m 240 83 q 279 83 318 123 q 356 162 380 227 q 404 291 404 358 q 404 404 382 430 q 359 456 320 456 q 278 456 242 418 q 206 380 184 316 q 162 251 162 182 q 162 83 240 83 z"},"d":{"x_min":0,"x_max":585,"ha":585,"o":"m 304 550 q 392 550 435 463 l 439 463 q 445 534 457 585 l 494 760 l 608 760 l 447 0 l 357 0 l 366 86 l 363 86 q 320 34 280 12 q 240 -10 195 -10 q 125 -10 85 40 q 46 89 46 180 q 46 280 81 367 q 116 454 174 502 q 233 550 304 550 z m 239 83 q 279 83 318 123 q 357 163 381 228 q 405 292 405 358 q 405 402 384 429 q 362 456 319 456 q 277 456 241 418 q 205 381 184 315 q 162 250 162 182 q 162 83 239 83 z"},"1":{"x_min":0,"x_max":551,"ha":551,"o":"m 311 0 l 195 0 l 287 425 q 301 498 327 583 q 299 556 261 533 l 170 476 l 118 559 l 366 714 l 463 714 z"},"5":{"x_min":0,"x_max":551,"ha":551,"o":"m 298 443 q 386 443 439 392 q 491 342 491 253 q 491 174 457 115 q 423 55 357 23 q 292 -10 199 -10 q 95 -10 26 29 l 26 135 q 107 86 193 86 q 277 86 325 126 q 372 167 372 239 q 372 290 342 321 q 312 352 250 352 q 204 352 140 335 l 97 368 l 195 714 l 543 714 l 521 612 l 274 612 l 222 434 q 268 443 298 443 z"}}}
